<?xml version="1.0" encoding="UTF-8"?>
<svg width="16px" height="16px" viewBox="0 0 16 16" version="1.1" xmlns="http://www.w3.org/2000/svg" xmlns:xlink="http://www.w3.org/1999/xlink">
    <!-- Generator: Sketch 54.1 (76490) - https://sketchapp.com -->
    <title>About</title>
    <desc>Created with Sketch.</desc>
    <g id="UI" stroke="none" stroke-width="1" fill="none" fill-rule="evenodd" opacity="0.37">
        <g id="9.1.-Menu-Broker" transform="translate(-24.000000, -589.000000)" fill="#FEFEFE">
            <g id="Menu">
                <g id="Menu-text" transform="translate(0.000000, 156.000000)">
                    <g id="About-AIX" transform="translate(0.000000, 433.000000)">
                        <g id="About" transform="translate(24.000000, 0.000000)">
                            <g id="Company_icon">
                                <g id="box" transform="translate(0.000000, 1.500000)">
                                    <path d="M0.853333333,2.79175 L15.0755556,2.79175 L15.0755556,0.9048 L0.853333333,0.9048 L0.853333333,2.79175 Z M15.4192593,3.54185 L0.512592593,3.54185 C0.322962963,3.54185 0.171851852,3.37415 0.171851852,3.1668 L0.171851852,0.52975 C0.171851852,0.3224 0.322962963,0.1547 0.512592593,0.1547 L15.4192593,0.1547 C15.6088889,0.1547 15.76,0.3224 15.76,0.52975 L15.76,3.1668 C15.76,3.37415 15.6088889,3.54185 15.4192593,3.54185 L15.4192593,3.54185 Z" id="Fill-64"></path>
                                    <path d="M1.81037037,12.109825 L14.1185185,12.109825 L14.1185185,3.54185 L1.81037037,3.54185 L1.81037037,12.109825 Z M14.4622222,12.859925 L1.46962963,12.859925 C1.28,12.859925 1.12888889,12.692225 1.12888889,12.484875 L1.12888889,3.1668 C1.12888889,2.95945 1.28,2.79175 1.46962963,2.79175 L14.4622222,2.79175 C14.6518519,2.79175 14.802963,2.95945 14.802963,3.1668 L14.802963,12.484875 C14.802963,12.692225 14.6518519,12.859925 14.4622222,12.859925 L14.4622222,12.859925 Z" id="Fill-65"></path>
                                    <path d="M6.39111111,5.686525 L9.54074074,5.686525 L9.54074074,5.134675 L6.39111111,5.134675 L6.39111111,5.686525 Z M9.88148148,6.436625 L6.04740741,6.436625 C5.86074074,6.436625 5.70666667,6.268925 5.70666667,6.061575 L5.70666667,4.759625 C5.70666667,4.552275 5.86074074,4.384575 6.04740741,4.384575 L9.88148148,4.384575 C10.0711111,4.384575 10.2251852,4.552275 10.2251852,4.759625 L10.2251852,6.061575 C10.2251852,6.268925 10.0711111,6.436625 9.88148148,6.436625 L9.88148148,6.436625 Z" id="Fill-66"></path>
                                </g>
                            </g>
                        </g>
                    </g>
                </g>
            </g>
        </g>
    </g>
</svg>