<?xml version="1.0" encoding="UTF-8"?>
<svg width="16px" height="16px" viewBox="0 0 16 16" version="1.1" xmlns="http://www.w3.org/2000/svg" xmlns:xlink="http://www.w3.org/1999/xlink">
    <!-- Generator: Sketch 54.1 (76490) - https://sketchapp.com -->
    <title>Auth</title>
    <desc>Created with Sketch.</desc>
    <g id="UI" stroke="none" stroke-width="1" fill="none" fill-rule="evenodd" opacity="0.37">
        <g id="9.1.-Menu-Broker" transform="translate(-24.000000, -396.000000)" fill="#FFFFFF">
            <g id="Menu">
                <g id="Menu-text" transform="translate(0.000000, 156.000000)">
                    <g id="2nd-auth" transform="translate(0.000000, 240.000000)">
                        <g id="Auth" transform="translate(24.000000, 0.000000)">
                            <g id="Auth_icon-">
                                <g id="Key" transform="translate(2.800000, 0.000000)">
                                    <path d="M5.11703704,6.25303704 C2.69925926,6.25303704 0.728888889,8.22133333 0.728888889,10.6405926 C0.728888889,13.0601481 2.69925926,15.0281481 5.11703704,15.0281481 C7.53777778,15.0281481 9.50518519,13.0601481 9.50518519,10.6405926 C9.50518519,8.22133333 7.53777778,6.25303704 5.11703704,6.25303704 Z M5.11703704,15.712 C2.32296296,15.712 0.0474074074,13.437037 0.0474074074,10.6405926 C0.0474074074,7.84444444 2.32296296,5.56918519 5.11703704,5.56918519 C7.91407407,5.56918519 10.1896296,7.84444444 10.1896296,10.6405926 C10.1896296,13.437037 7.91407407,15.712 5.11703704,15.712 L5.11703704,15.712 Z" id="Fill-82"></path>
                                    <path d="M8.41185185,6.98488889 L7.72740741,6.98488889 L7.72740741,3.55555556 C7.72740741,2.11703704 6.55703704,0.946666667 5.11703704,0.946666667 C3.68,0.946666667 2.50962963,2.11703704 2.50962963,3.55555556 L2.50962963,6.98488889 L1.82518519,6.98488889 L1.82518519,3.55555556 C1.82518519,1.73985185 3.30074074,0.262814815 5.11703704,0.262814815 C6.93333333,0.262814815 8.41185185,1.73985185 8.41185185,3.55555556 L8.41185185,6.98488889" id="Fill-83"></path>
                                    <path d="M5.11703704,9.63911111 C4.69333333,9.63911111 4.34666667,9.98459259 4.34666667,10.4091852 C4.34666667,10.8340741 4.69333333,11.1795556 5.11703704,11.1795556 C5.5437037,11.1795556 5.88740741,10.8340741 5.88740741,10.4091852 C5.88740741,9.98459259 5.5437037,9.63911111 5.11703704,9.63911111 Z M5.11703704,11.8634074 C4.31703704,11.8634074 3.66518519,11.210963 3.66518519,10.4091852 C3.66518519,9.6077037 4.31703704,8.95525926 5.11703704,8.95525926 C5.92,8.95525926 6.57185185,9.6077037 6.57185185,10.4091852 C6.57185185,11.210963 5.92,11.8634074 5.11703704,11.8634074 L5.11703704,11.8634074 Z" id="Fill-84"></path>
                                    <path d="M5.11703704,13.3428148 C4.93037037,13.3428148 4.7762963,13.1899259 4.7762963,13.0008889 L4.7762963,11.5214815 C4.7762963,11.3324444 4.93037037,11.1795556 5.11703704,11.1795556 C5.30666667,11.1795556 5.46074074,11.3324444 5.46074074,11.5214815 L5.46074074,13.0008889 C5.46074074,13.1899259 5.30666667,13.3428148 5.11703704,13.3428148" id="Fill-85"></path>
                                </g>
                            </g>
                        </g>
                    </g>
                </g>
            </g>
        </g>
    </g>
</svg>