<?xml version="1.0" encoding="UTF-8"?>
<svg width="16px" height="16px" viewBox="0 0 16 16" version="1.1" xmlns="http://www.w3.org/2000/svg" xmlns:xlink="http://www.w3.org/1999/xlink">
    <!-- Generator: Sketch 54.1 (76490) - https://sketchapp.com -->
    <title>Contact</title>
    <desc>Created with Sketch.</desc>
    <g id="UI" stroke="none" stroke-width="1" fill="none" fill-rule="evenodd" opacity="0.37">
        <g id="9.1.-Menu-Broker" transform="translate(-24.000000, -703.000000)" fill="#FFFFFF">
            <g id="Menu">
                <g id="Menu-text" transform="translate(0.000000, 156.000000)">
                    <g id="Contuct-us" transform="translate(0.000000, 547.000000)">
                        <g id="Contact_icon" transform="translate(24.000000, 0.000000)">
                            <path d="M8,2.26262793 C4.00891383,2.26262793 0.761967646,4.55711456 0.761967646,7.37652691 C0.761967646,8.34714427 1.15714757,9.29795312 1.90326841,10.1200066 L2.00231099,10.2289534 L2.00231099,13.246451 L4.49125124,11.8433476 L4.6569825,11.9060746 C5.70551337,12.2923407 6.82964675,12.4904259 8,12.4904259 C11.9910862,12.4904259 15.2383625,10.1959393 15.2383625,7.37652691 C15.2383625,4.55711456 11.9910862,2.26262793 8,2.26262793 Z M1.24034335,14.5472103 L1.24034335,10.5194784 C0.428524265,9.57857379 0,8.49570815 0,7.37652691 C0,4.13783427 3.58864312,1.5 8,1.5 C12.411687,1.5 16,4.13783427 16,7.37652691 C16,10.6152195 12.411687,13.2530538 8,13.2530538 C6.80125454,13.2530538 5.64443711,13.0582701 4.55959062,12.6786068 L1.24034335,14.5472103 L1.24034335,14.5472103 Z" id="Fill-215"></path>
                        </g>
                    </g>
                </g>
            </g>
        </g>
    </g>
</svg>