<?xml version="1.0" encoding="UTF-8"?>
<svg width="16px" height="16px" viewBox="0 0 16 16" version="1.1" xmlns="http://www.w3.org/2000/svg" xmlns:xlink="http://www.w3.org/1999/xlink">
    <!-- Generator: Sketch 54.1 (76490) - https://sketchapp.com -->
    <title>Help</title>
    <desc>Created with Sketch.</desc>
    <g id="UI" stroke="none" stroke-width="1" fill="none" fill-rule="evenodd" opacity="0.37">
        <g id="9.1.-Menu-Broker" transform="translate(-24.000000, -646.000000)" fill="#FFFFFF">
            <g id="Menu">
                <g id="Menu-text" transform="translate(0.000000, 156.000000)">
                    <g id="Help" transform="translate(0.000000, 490.000000)">
                        <g transform="translate(24.000000, 0.000000)" id="Help_icon">
                            <g>
                                <g id="Help">
                                    <path d="M7.50978723,12.4340422 L8.50978723,12.4340422 L8.50978723,6.085106 L7.50978723,6.085106 L7.50978723,12.4340422 Z M7.42468085,3.91095745 C7.42468085,3.70869681 7.47914894,3.56244681 7.59148936,3.46598404 C7.70382979,3.37263298 7.84,3.32595745 8.00680851,3.32595745 C8.16680851,3.32595745 8.30297872,3.37574468 8.4187234,3.46909574 C8.53446809,3.56555851 8.59234043,3.71180851 8.59234043,3.91095745 C8.59234043,4.10699468 8.53446809,4.25324468 8.4187234,4.35281915 C8.30297872,4.44928191 8.16680851,4.49595745 8.00680851,4.49595745 C7.84,4.49595745 7.70382979,4.44928191 7.59148936,4.35281915 C7.47914894,4.25324468 7.42468085,4.10699468 7.42468085,3.91095745 L7.42468085,3.91095745 Z" id="Fill-250"></path>
                                    <path d="M8.00680851,0.826693028 C4.10893617,0.826693028 0.936170213,3.98893697 0.936170213,7.87368036 C0.936170213,11.7619141 4.10893617,14.924158 8.00680851,14.924158 C11.9080851,14.924158 15.0774468,11.7619141 15.0774468,7.87368036 C15.0774468,3.98893697 11.9080851,0.826693028 8.00680851,0.826693028 Z M8.00680851,15.7304255 C3.67659574,15.7304255 0.153191489,12.2051867 0.153191489,7.87368036 C0.153191489,3.54566437 3.67659574,0.0204255319 8.00680851,0.0204255319 C12.3404255,0.0204255319 15.8638298,3.54566437 15.8638298,7.87368036 C15.8638298,12.2051867 12.3404255,15.7304255 8.00680851,15.7304255 L8.00680851,15.7304255 Z" id="Fill-251"></path>
                                </g>
                            </g>
                        </g>
                    </g>
                </g>
            </g>
        </g>
    </g>
</svg>