<?xml version="1.0" encoding="UTF-8"?>
<svg width="16px" height="16px" viewBox="0 0 16 16" version="1.1" xmlns="http://www.w3.org/2000/svg" xmlns:xlink="http://www.w3.org/1999/xlink">
    <!-- Generator: Sketch 54.1 (76490) - https://sketchapp.com -->
    <title>Logout</title>
    <desc>Created with Sketch.</desc>
    <g id="UI" stroke="none" stroke-width="1" fill="none" fill-rule="evenodd" opacity="0.37">
        <g id="9.1.-Menu-Broker" transform="translate(-24.000000, -780.000000)" fill="#FEFEFE">
            <g id="Menu">
                <g id="Menu-text" transform="translate(0.000000, 156.000000)">
                    <g id="Logout" transform="translate(24.000000, 624.000000)">
                        <g id="Logout_icon">
                            <g id="Logout" transform="translate(0.680000, 0.000000)">
                                <path d="M7.26434043,15.8570213 C3.38042553,15.8570213 0.219914894,12.6638298 0.219914894,8.73531915 C0.219914894,6.68255319 1.1012766,4.72510638 2.63761702,3.37021277 L3.15778723,3.95914894 C1.79029787,5.16765957 1.00561702,6.90723404 1.00561702,8.73531915 C1.00561702,12.2280851 3.81344681,15.0740426 7.26434043,15.0740426 C10.7155745,15.0740426 13.5230638,12.2280851 13.5230638,8.73531915 C13.5230638,6.90723404 12.7387234,5.16765957 11.3708936,3.95914894 L11.8910638,3.37021277 C13.4274043,4.72510638 14.3080851,6.68255319 14.3080851,8.73531915 C14.3080851,12.6638298 11.1485957,15.8570213 7.26434043,15.8570213" id="Fill-222"></path>
                                <polygon id="Fill-223" points="6.87148936 8.16340426 7.65719149 8.16340426 7.65719149 0.145361702 6.87148936 0.145361702"></polygon>
                            </g>
                        </g>
                    </g>
                </g>
            </g>
        </g>
    </g>
</svg>