<?xml version="1.0" encoding="UTF-8"?>
<svg width="16px" height="16px" viewBox="0 0 16 16" version="1.1" xmlns="http://www.w3.org/2000/svg" xmlns:xlink="http://www.w3.org/1999/xlink">
    <!-- Generator: Sketch 54.1 (76490) - https://sketchapp.com -->
    <title>Market</title>
    <desc>Created with Sketch.</desc>
    <g id="UI" stroke="none" stroke-width="1" fill="none" fill-rule="evenodd" opacity="0.37">
        <g id="9.1.-Menu-Broker" transform="translate(-24.000000, -156.000000)" fill="#FFFFFF">
            <g id="Menu">
                <g id="Menu-text" transform="translate(0.000000, 156.000000)">
                    <g id="Market-Data">
                        <g id="Market" transform="translate(24.000000, 0.000000)">
                            <g id="Market_icon">
                                <g id="icons" transform="translate(0.000000, 0.500000)">
                                    <path d="M0.347826087,14.5043478 L3.13043478,14.5043478 C3.32243478,14.5043478 3.47826087,14.3485217 3.47826087,14.1565217 L3.47826087,12.0695652 C3.47826087,11.9770435 3.4413913,11.8886957 3.37669565,11.8233043 L1.9853913,10.432 C1.84973913,10.2963478 1.62921739,10.2963478 1.49356522,10.432 L0.10226087,11.8233043 C0.0368695652,11.8886957 0,11.9770435 0,12.0695652 L0,14.1565217 C0,14.3485217 0.155826087,14.5043478 0.347826087,14.5043478 L0.347826087,14.5043478 Z M0.695652174,12.2135652 L1.73913043,11.170087 L2.7826087,12.2135652 L2.7826087,13.8086957 L0.695652174,13.8086957 L0.695652174,12.2135652 L0.695652174,12.2135652 Z" id="Shape"></path>
                                    <path d="M6.15930435,7.6493913 C6.02365217,7.51373913 5.80313043,7.51373913 5.66747826,7.6493913 L4.27617391,9.04069565 C4.21078261,9.10608696 4.17391304,9.19443478 4.17391304,9.28695652 L4.17391304,14.1565217 C4.17391304,14.3485217 4.32973913,14.5043478 4.52173913,14.5043478 L7.30434783,14.5043478 C7.49634783,14.5043478 7.65217391,14.3485217 7.65217391,14.1565217 L7.65217391,9.28695652 C7.65217391,9.19443478 7.61530435,9.10608696 7.5506087,9.04069565 L6.15930435,7.6493913 L6.15930435,7.6493913 Z M6.95652174,13.8086957 L4.86956522,13.8086957 L4.86956522,9.43095652 L5.91304348,8.38747826 L6.95652174,9.43095652 L6.95652174,13.8086957 L6.95652174,13.8086957 Z" id="Shape"></path>
                                    <path d="M10.3332174,4.17113043 C10.1975652,4.03547826 9.97704348,4.03547826 9.8413913,4.17113043 L8.45008696,5.56243478 C8.38469565,5.62782609 8.34782609,5.71617391 8.34782609,5.80869565 L8.34782609,14.1565217 C8.34782609,14.3485217 8.50365217,14.5043478 8.69565217,14.5043478 L11.4782609,14.5043478 C11.6702609,14.5043478 11.826087,14.3485217 11.826087,14.1565217 L11.826087,5.80869565 C11.826087,5.71617391 11.7892174,5.62782609 11.7245217,5.56243478 L10.3332174,4.17113043 L10.3332174,4.17113043 Z M11.1304348,13.8086957 L9.04347826,13.8086957 L9.04347826,5.95269565 L10.0869565,4.90921739 L11.1304348,5.95269565 L11.1304348,13.8086957 L11.1304348,13.8086957 Z" id="Shape"></path>
                                    <path d="M12.8695652,14.5043478 L15.6521739,14.5043478 C15.8441739,14.5043478 16,14.3485217 16,14.1565217 L16,2.33043478 C16,2.23791304 15.9631304,2.14956522 15.8984348,2.08417391 L14.5071304,0.692869565 C14.3714783,0.557217391 14.1509565,0.557217391 14.0153043,0.692869565 L12.624,2.08417391 C12.5586087,2.14956522 12.5217391,2.23791304 12.5217391,2.33043478 L12.5217391,14.1565217 C12.5217391,14.3485217 12.6775652,14.5043478 12.8695652,14.5043478 L12.8695652,14.5043478 Z M13.2173913,2.47443478 L14.2608696,1.43095652 L15.3043478,2.47443478 L15.3043478,13.8086957 L13.2173913,13.8086957 L13.2173913,2.47443478 L13.2173913,2.47443478 Z" id="Shape"></path>
                                </g>
                            </g>
                        </g>
                    </g>
                </g>
            </g>
        </g>
    </g>
</svg>