<?xml version="1.0" encoding="UTF-8"?>
<svg width="16px" height="16px" viewBox="0 0 16 16" version="1.1" xmlns="http://www.w3.org/2000/svg" xmlns:xlink="http://www.w3.org/1999/xlink">
    <!-- Generator: Sketch 54.1 (76490) - https://sketchapp.com -->
    <title>Notif</title>
    <desc>Created with Sketch.</desc>
    <g id="UI" stroke="none" stroke-width="1" fill="none" fill-rule="evenodd" opacity="0.37">
        <g id="9.1.-Menu-Broker" transform="translate(-24.000000, -276.000000)" fill="#FFFFFF">
            <g id="Menu">
                <g id="Menu-text" transform="translate(0.000000, 156.000000)">
                    <g id="Notifications" transform="translate(0.000000, 118.000000)">
                        <g id="Notification" transform="translate(24.000000, 0.000000)">
                            <g id="Notif_icon-" transform="translate(0.000000, 2.000000)">
                                <g id="bell" transform="translate(1.500000, 0.000000)">
                                    <path d="M11.3445745,13.2017021 L10.5465957,13.2017021 L10.5465957,6.78468085 C10.5465957,4.57191489 8.71760638,2.77106383 6.46922872,2.77106383 C4.22050532,2.77106383 2.39151596,4.57191489 2.39151596,6.78468085 L2.39151596,13.2017021 L1.59353723,13.2017021 L1.59353723,6.78468085 C1.59353723,4.13617021 3.78071809,1.98365957 6.46922872,1.98365957 C9.15739362,1.98365957 11.3445745,4.13617021 11.3445745,6.78468085 L11.3445745,13.2017021" id="Fill-218"></path>
                                    <polygon id="Fill-219" points="0 13.5965957 13 13.5965957 13 12.8102128 0 12.8102128"></polygon>
                                    <path d="M6.46922872,15.8570213 C4.98148936,15.8570213 3.77103723,14.6655319 3.77103723,13.2017021 L4.56901596,13.2017021 C4.56901596,14.2331915 5.4212766,15.0740426 6.46922872,15.0740426 C7.51683511,15.0740426 8.36909574,14.2331915 8.36909574,13.2017021 L9.16707447,13.2017021 C9.16707447,14.6655319 7.95662234,15.8570213 6.46922872,15.8570213" id="Fill-220"></path>
                                    <path d="M6.46922872,0.93106383 C6.17396277,0.93106383 5.9343617,1.16697872 5.9343617,1.4573617 C5.9343617,1.74774468 6.17396277,1.98365957 6.46922872,1.98365957 C6.76414894,1.98365957 7.00375,1.74774468 7.00375,1.4573617 C7.00375,1.16697872 6.76414894,0.93106383 6.46922872,0.93106383 Z M6.46922872,2.77106383 C5.73417553,2.77106383 5.13672872,2.18076596 5.13672872,1.4573617 C5.13672872,0.733957447 5.73417553,0.145361702 6.46922872,0.145361702 C7.20393617,0.145361702 7.80138298,0.733957447 7.80138298,1.4573617 C7.80138298,2.18076596 7.20393617,2.77106383 6.46922872,2.77106383 L6.46922872,2.77106383 Z" id="Fill-221"></path>
                                </g>
                            </g>
                        </g>
                    </g>
                </g>
            </g>
        </g>
    </g>
</svg>