<?xml version="1.0" encoding="UTF-8"?>
<svg width="16px" height="16px" viewBox="0 0 16 16" version="1.1" xmlns="http://www.w3.org/2000/svg" xmlns:xlink="http://www.w3.org/1999/xlink">
    <!-- Generator: Sketch 54.1 (76490) - https://sketchapp.com -->
    <title>News</title>
    <desc>Created with Sketch.</desc>
    <g id="UI" stroke="none" stroke-width="1" fill="none" fill-rule="evenodd" opacity="0.37">
        <g id="9.1.-Menu-Broker" transform="translate(-24.000000, -215.000000)" fill="#FFFFFF">
            <g id="Menu">
                <g id="Menu-text" transform="translate(0.000000, 156.000000)">
                    <g id="News-and-Market-notice" transform="translate(0.000000, 57.000000)">
                        <g id="News" transform="translate(24.000000, 0.000000)">
                            <g id="News_icon" transform="translate(0.000000, 2.000000)">
                                <g id="news">
                                    <path d="M8.00223404,0.801041215 C5.89840426,0.801041215 4.12138298,4.09752711 4.12138298,8 C4.12138298,11.9024729 5.89840426,15.1993059 8.00223404,15.1993059 C10.1026596,15.1993059 11.8796809,11.9024729 11.8796809,8 C11.8796809,4.09752711 10.1026596,0.801041215 8.00223404,0.801041215 Z M8.00223404,16 C5.3843617,16 3.335,12.4862473 3.335,8 C3.335,3.51409978 5.3843617,0 8.00223404,0 C10.6167021,0 12.6660638,3.51409978 12.6660638,8 C12.6660638,12.4862473 10.6167021,16 8.00223404,16 L8.00223404,16 Z" id="Fill-245"></path>
                                    <path d="M8.00173348,0.801041215 C4.02860238,0.801041215 0.800866739,4.0305423 0.800866739,8 C0.800866739,11.9698048 4.02860238,15.1993059 8.00173348,15.1993059 C11.9713976,15.1993059 15.2026002,11.9698048 15.2026002,8 C15.2026002,4.0305423 11.9713976,0.801041215 8.00173348,0.801041215 Z M8.00173348,16 C3.58829902,16 0,12.4112798 0,8 C0,3.58872017 3.58829902,0 8.00173348,0 C12.411701,0 16,3.58872017 16,8 C16,12.4112798 12.411701,16 8.00173348,16 L8.00173348,16 Z" id="Fill-246"></path>
                                    <polygon id="Fill-247" points="1 5.78570213 14.8587234 5.78570213 14.8587234 5 1 5"></polygon>
                                    <polygon id="Fill-248" points="1 10.9857021 14.8587234 10.9857021 14.8587234 10.2 1 10.2"></polygon>
                                    <polygon id="Fill-249" points="7.6 15.4079149 8.38638298 15.4079149 8.38638298 0.5 7.6 0.5"></polygon>
                                </g>
                            </g>
                        </g>
                    </g>
                </g>
            </g>
        </g>
    </g>
</svg>