<?xml version="1.0" encoding="UTF-8"?>
<svg width="16px" height="16px" viewBox="0 0 16 16" version="1.1" xmlns="http://www.w3.org/2000/svg" xmlns:xlink="http://www.w3.org/1999/xlink">
    <!-- Generator: Sketch 54.1 (76490) - https://sketchapp.com -->
    <title>Profile</title>
    <desc>Created with Sketch.</desc>
    <g id="UI" stroke="none" stroke-width="1" fill="none" fill-rule="evenodd" opacity="0.37">
        <g id="9.1.-Menu-Broker" transform="translate(-24.000000, -475.000000)" fill="#FFFFFF">
            <g id="Menu">
                <g id="Menu-text" transform="translate(0.000000, 156.000000)">
                    <g id="Sign-In/Up" transform="translate(0.000000, 319.000000)">
                        <g id="Profile" transform="translate(24.000000, 0.000000)">
                            <g id="Profile_icon">
                                <g id="user" transform="translate(0.000000, 1.000000)">
                                    <path d="M7.92701754,0.698947368 C6.17263158,0.698947368 4.74666667,2.12491228 4.74666667,3.87649123 C4.74666667,5.62807018 6.17263158,7.05403509 7.92701754,7.05403509 C9.67859649,7.05403509 11.1045614,5.62807018 11.1045614,3.87649123 C11.1045614,2.12491228 9.67859649,0.698947368 7.92701754,0.698947368 Z M7.92701754,7.70245614 C5.81614035,7.70245614 4.09824561,5.98736842 4.09824561,3.87649123 C4.09824561,1.76842105 5.81614035,0.0505263158 7.92701754,0.0505263158 C10.0350877,0.0505263158 11.7529825,1.76842105 11.7529825,3.87649123 C11.7529825,5.98736842 10.0350877,7.70245614 7.92701754,7.70245614 L7.92701754,7.70245614 Z" id="Fill-113"></path>
                                    <path d="M0.814035088,13.0105263 L15.2,13.0105263 L15.2,10.8884211 C15.2,9.64491228 14.1866667,8.63157895 12.9431579,8.63157895 L10.8884211,8.63157895 C10.0912281,9.41754386 9.04421053,9.84701754 7.92701754,9.84701754 C6.80701754,9.84701754 5.76,9.41754386 4.96561404,8.63157895 L3.07087719,8.63157895 C1.8245614,8.63157895 0.814035088,9.64491228 0.814035088,10.8884211 L0.814035088,13.0105263 Z M15.522807,13.6589474 L0.488421053,13.6589474 C0.311578947,13.6589474 0.165614035,13.5129825 0.165614035,13.3333333 L0.165614035,10.8884211 C0.165614035,9.28561404 1.46807018,7.98315789 3.07087719,7.98315789 L5.10035088,7.98315789 C5.19017544,7.98315789 5.27438596,8.01964912 5.33614035,8.08421053 C6.01824561,8.80280702 6.93894737,9.20140351 7.92701754,9.20140351 C8.9122807,9.20140351 9.83298246,8.80280702 10.5178947,8.08421053 C10.5796491,8.01964912 10.6638596,7.98315789 10.7508772,7.98315789 L12.9431579,7.98315789 C14.5431579,7.98315789 15.8484211,9.28561404 15.8484211,10.8884211 L15.8484211,13.3333333 C15.8484211,13.5129825 15.7024561,13.6589474 15.522807,13.6589474 L15.522807,13.6589474 Z" id="Fill-114"></path>
                                </g>
                            </g>
                        </g>
                    </g>
                </g>
            </g>
        </g>
    </g>
</svg>