<?xml version="1.0" encoding="UTF-8"?>
<svg width="20px" height="20px" viewBox="0 0 20 20" version="1.1" xmlns="http://www.w3.org/2000/svg" xmlns:xlink="http://www.w3.org/1999/xlink">
    <!-- Generator: Sketch 54.1 (76490) - https://sketchapp.com -->
    <title>QR</title>
    <desc>Created with Sketch.</desc>
    <g id="UI" stroke="none" stroke-width="1" fill="none" fill-rule="evenodd">
        <g id="17.-Broker-stocks" transform="translate(-335.000000, -56.000000)" fill="#FFFFFF">
            <g id="Navbar">
                <g id="iPhone-X/Bars/Navigation/Navigation-Bar---1-Action">
                    <g id="QR_icon" transform="translate(335.000000, 56.000000)">
                        <g id="ui-qr-code">
                            <g id="icons">
                                <path d="M19.5454545,0 L6.81818182,0 C6.56727273,0 6.36363636,0.203636364 6.36363636,0.454545455 L6.36363636,13.1818182 C6.36363636,13.4327273 6.56727273,13.6363636 6.81818182,13.6363636 L19.5454545,13.6363636 C19.7963636,13.6363636 20,13.4327273 20,13.1818182 L20,0.454545455 C20,0.203636364 19.7963636,0 19.5454545,0 L19.5454545,0 Z M19.0909091,12.7272727 L7.27272727,12.7272727 L7.27272727,0.909090909 L19.0909091,0.909090909 L19.0909091,12.7272727 L19.0909091,12.7272727 Z" id="Shape"></path>
                                <path d="M19.5454545,14.5454545 L15,14.5454545 C14.7490909,14.5454545 14.5454545,14.7490909 14.5454545,15 L14.5454545,19.5454545 C14.5454545,19.7963636 14.7490909,20 15,20 L19.5454545,20 C19.7963636,20 20,19.7963636 20,19.5454545 L20,15 C20,14.7490909 19.7963636,14.5454545 19.5454545,14.5454545 L19.5454545,14.5454545 Z M19.0909091,19.0909091 L15.4545455,19.0909091 L15.4545455,15.4545455 L19.0909091,15.4545455 L19.0909091,19.0909091 L19.0909091,19.0909091 Z" id="Shape"></path>
                                <path d="M12.2727273,20 C12.5236364,20 12.7272727,19.7963636 12.7272727,19.5454545 L12.7272727,15 C12.7272727,14.7490909 12.5236364,14.5454545 12.2727273,14.5454545 L7.72727273,14.5454545 C7.47636364,14.5454545 7.27272727,14.7490909 7.27272727,15 L7.27272727,19.5454545 C7.27272727,19.7963636 7.47636364,20 7.72727273,20 L12.2727273,20 L12.2727273,20 Z M8.18181818,15.4545455 L11.8181818,15.4545455 L11.8181818,19.0909091 L8.18181818,19.0909091 L8.18181818,15.4545455 L8.18181818,15.4545455 Z" id="Shape"></path>
                                <path d="M4.54545455,2.72727273 C4.79636364,2.72727273 5,2.52363636 5,2.27272727 C5,2.02181818 4.79636364,1.81818182 4.54545455,1.81818182 L2.27272727,1.81818182 C2.02181818,1.81818182 1.81818182,2.02181818 1.81818182,2.27272727 L1.81818182,6.81818182 C1.81818182,7.06909091 2.02181818,7.27272727 2.27272727,7.27272727 L4.54545455,7.27272727 C4.79636364,7.27272727 5,7.06909091 5,6.81818182 C5,6.56727273 4.79636364,6.36363636 4.54545455,6.36363636 L2.72727273,6.36363636 L2.72727273,2.72727273 L4.54545455,2.72727273 L4.54545455,2.72727273 Z" id="Shape"></path>
                                <path d="M11.3636364,9.09090909 L15,9.09090909 C15.2509091,9.09090909 15.4545455,8.88727273 15.4545455,8.63636364 L15.4545455,5 C15.4545455,4.74909091 15.2509091,4.54545455 15,4.54545455 L11.3636364,4.54545455 C11.1127273,4.54545455 10.9090909,4.74909091 10.9090909,5 L10.9090909,8.63636364 C10.9090909,8.88727273 11.1127273,9.09090909 11.3636364,9.09090909 L11.3636364,9.09090909 Z M11.8181818,5.45454545 L14.5454545,5.45454545 L14.5454545,8.18181818 L11.8181818,8.18181818 L11.8181818,5.45454545 L11.8181818,5.45454545 Z" id="Shape"></path>
                                <path d="M5.45454545,19.5454545 L5.45454545,15 C5.45454545,14.7490909 5.25090909,14.5454545 5,14.5454545 L0.454545455,14.5454545 C0.203636364,14.5454545 0,14.7490909 0,15 L0,19.5454545 C0,19.7963636 0.203636364,20 0.454545455,20 L5,20 C5.25090909,20 5.45454545,19.7963636 5.45454545,19.5454545 L5.45454545,19.5454545 Z M4.54545455,19.0909091 L0.909090909,19.0909091 L0.909090909,15.4545455 L4.54545455,15.4545455 L4.54545455,19.0909091 L4.54545455,19.0909091 Z" id="Shape"></path>
                                <path d="M5.45454545,0.454545455 C5.45454545,0.203636364 5.25090909,0 5,0 L0.454545455,0 C0.203636364,0 0,0.203636364 0,0.454545455 L0,13.1818182 C0,13.4327273 0.203636364,13.6363636 0.454545455,13.6363636 C0.705454545,13.6363636 0.909090909,13.4327273 0.909090909,13.1818182 L0.909090909,9.09090909 L5,9.09090909 C5.25090909,9.09090909 5.45454545,8.88727273 5.45454545,8.63636364 C5.45454545,8.38545455 5.25090909,8.18181818 5,8.18181818 L0.909090909,8.18181818 L0.909090909,0.909090909 L5,0.909090909 C5.25090909,0.909090909 5.45454545,0.705454545 5.45454545,0.454545455 L5.45454545,0.454545455 Z" id="Shape"></path>
                                <path d="M2.27272727,10 C2.02181818,10 1.81818182,10.2036364 1.81818182,10.4545455 L1.81818182,12.7272727 C1.81818182,12.9781818 2.02181818,13.1818182 2.27272727,13.1818182 C2.52363636,13.1818182 2.72727273,12.9781818 2.72727273,12.7272727 L2.72727273,10.9090909 L4.54545455,10.9090909 C4.79636364,10.9090909 5,10.7054545 5,10.4545455 C5,10.2036364 4.79636364,10 4.54545455,10 L2.27272727,10 L2.27272727,10 Z" id="Shape"></path>
                            </g>
                        </g>
                    </g>
                </g>
            </g>
        </g>
    </g>
</svg>