<?xml version="1.0" encoding="UTF-8"?>
<svg width="16px" height="16px" viewBox="0 0 16 16" version="1.1" xmlns="http://www.w3.org/2000/svg" xmlns:xlink="http://www.w3.org/1999/xlink">
    <!-- Generator: Sketch 54.1 (76490) - https://sketchapp.com -->
    <title>Settings</title>
    <desc>Created with Sketch.</desc>
    <g id="UI" stroke="none" stroke-width="1" fill="none" fill-rule="evenodd" opacity="0.37">
        <g id="9.1.-Menu-Broker" transform="translate(-24.000000, -532.000000)" fill="#FFFFFF">
            <g id="Menu">
                <g id="Menu-text" transform="translate(0.000000, 156.000000)">
                    <g id="Language" transform="translate(0.000000, 376.000000)">
                        <g transform="translate(24.000000, 0.000000)" id="Lang_icon">
                            <g>
                                <g id="Setting">
                                    <path d="M1.80162947,11.9404647 L4.12351897,12.8106127 C4.20570975,12.8418133 4.27420207,12.9007476 4.32214669,12.9770155 L5.61322684,15.115985 L7.94196557,14.2701041 C8.02415634,14.2389035 8.11662097,14.2389035 8.19881175,14.2666374 L10.5446736,15.0674509 L11.7946583,12.9007476 C11.8391783,12.8244796 11.9076706,12.7655453 11.9898614,12.730878 L14.2946278,11.8156626 L13.8768247,9.34388743 C13.8631262,9.25721929 13.8768247,9.16361771 13.9213447,9.08734976 L15.1028372,6.88251247 L13.2158739,5.26355175 C13.1473815,5.20461742 13.1028615,5.12488274 13.0857385,5.03474788 L12.5925938,2.57926635 L10.1200212,2.56574612 C10.0309812,2.56539945 9.9453658,2.53419892 9.87687348,2.47803797 L7.94196557,0.915931554 L6.03787919,2.5168653 C5.96938688,2.57406626 5.88377148,2.60665348 5.79473147,2.60908019 L3.32215888,2.67390795 L2.87695883,5.13874964 C2.86326037,5.22541777 2.81874036,5.30515245 2.75024805,5.36755351 L0.897530909,7.0246482 L2.12354336,9.20521842 C2.16463875,9.28148637 2.18176183,9.37162123 2.16806336,9.46175609 L1.80162947,11.9404647 Z M5.44199605,16 C5.30843603,16 5.17830063,15.9306655 5.1063837,15.8093301 L3.71941431,13.5108912 L1.22629402,12.5783421 C1.05163862,12.5124743 0.94547553,12.3287379 0.972872456,12.1415347 L1.36670327,9.47908971 L0.0516508119,7.13905014 C-0.0408138142,6.97611405 -0.00656765637,6.76811053 0.133841591,6.64330842 L2.12354336,4.85794489 L2.60298957,2.20902009 C2.63381111,2.0221636 2.79134343,1.88557462 2.9796973,1.88037453 L5.63719915,1.81242672 L7.68169477,0.092584296 C7.82552863,-0.0287510894 8.03443019,-0.0311777971 8.18168867,0.0873842081 L10.2604304,1.76631927 L12.9213569,1.78087952 C13.1062862,1.78191953 13.2672431,1.91573513 13.3049139,2.10155161 L13.8323047,4.74007623 L15.8596772,6.48383906 C16.0035111,6.60517444 16.0411819,6.81317796 15.9521419,6.97958077 L14.6816094,9.34735415 L15.1268095,11.999399 C15.157631,12.1866022 15.0548925,12.3703386 14.8836617,12.4396731 L12.4076645,13.4242231 L11.0652152,15.7503958 C10.9727505,15.9133319 10.7741228,15.9895998 10.5994674,15.9271988 L8.0789502,15.0709176 L5.57555606,15.9791996 C5.53103606,15.9930665 5.48651605,16 5.44199605,16 L5.44199605,16 Z" id="Fill-224"></path>
                                    <path d="M8,5.08721852 C6.39288889,5.08721852 5.088,6.39441801 5.088,8 C5.088,9.60558199 6.39288889,10.9127815 8,10.9127815 C9.60711111,10.9127815 10.9155556,9.60558199 10.9155556,8 C10.9155556,6.39441801 9.60711111,5.08721852 8,5.08721852 Z M8,11.7333333 C5.94133333,11.7333333 4.26666667,10.0567079 4.26666667,8 C4.26666667,5.93973993 5.94133333,4.26666667 8,4.26666667 C10.0586667,4.26666667 11.7333333,5.93973993 11.7333333,8 C11.7333333,10.0567079 10.0586667,11.7333333 8,11.7333333 L8,11.7333333 Z" id="Fill-225"></path>
                                </g>
                            </g>
                        </g>
                    </g>
                </g>
            </g>
        </g>
    </g>
</svg>