<?xml version="1.0" encoding="UTF-8"?>
<svg width="16px" height="16px" viewBox="0 0 16 16" version="1.1" xmlns="http://www.w3.org/2000/svg" xmlns:xlink="http://www.w3.org/1999/xlink">
    <!-- Generator: Sketch 54.1 (76490) - https://sketchapp.com -->
    <title>Trades</title>
    <desc>Created with Sketch.</desc>
    <g id="UI" stroke="none" stroke-width="1" fill="none" fill-rule="evenodd" opacity="0.37">
        <g id="9.1.-Menu-Broker" transform="translate(-24.000000, -337.000000)" fill="#FFFFFF">
            <g id="Menu">
                <g id="Menu-text" transform="translate(0.000000, 156.000000)">
                    <g id="My-trades" transform="translate(0.000000, 181.000000)">
                        <g id="Trades" transform="translate(24.000000, 0.000000)">
                            <g id="Trades_icon-">
                                <path d="M14.6666667,2.7 C13.9313333,2.7 13.3333333,3.298 13.3333333,4.03333333 C13.3333333,4.34466667 13.4446667,4.62733333 13.624,4.854 L11.182,8.13666667 C11.0233333,8.07066667 10.8493333,8.03333333 10.6666667,8.03333333 C10.1973333,8.03333333 9.786,8.278 9.54866667,8.64533333 L6.65133333,7.52466667 C6.65666667,7.47266667 6.66666667,7.42066667 6.66666667,7.36666667 C6.66666667,6.63133333 6.06866667,6.03333333 5.33333333,6.03333333 C4.598,6.03333333 4,6.63133333 4,7.36666667 C4,7.604 4.06733333,7.82333333 4.17666667,8.01666667 L1.928,10.846 C1.748,10.756 1.548,10.7 1.33333333,10.7 C0.598,10.7 0,11.298 0,12.0333333 C0,12.7686667 0.598,13.3666667 1.33333333,13.3666667 C2.06866667,13.3666667 2.66666667,12.7686667 2.66666667,12.0333333 C2.66666667,11.7546667 2.58,11.496 2.43333333,11.2813333 L4.64266667,8.50133333 C4.84466667,8.62533333 5.08,8.7 5.33333333,8.7 C5.77666667,8.7 6.16733333,8.48 6.41,8.14666667 L9.342,9.28066667 C9.34,9.30933333 9.33333333,9.33733333 9.33333333,9.36666667 C9.33333333,10.102 9.93133333,10.7 10.6666667,10.7 C11.402,10.7 12,10.102 12,9.36666667 C12,9.05533333 11.8886667,8.77266667 11.7093333,8.54533333 L14.1513333,5.26266667 C14.31,5.32933333 14.484,5.36666667 14.6666667,5.36666667 C15.402,5.36666667 16,4.76866667 16,4.03333333 C16,3.298 15.402,2.7 14.6666667,2.7 L14.6666667,2.7 Z M1.33333333,12.7 C0.966,12.7 0.666666667,12.4006667 0.666666667,12.0333333 C0.666666667,11.666 0.966,11.3666667 1.33333333,11.3666667 C1.70066667,11.3666667 2,11.666 2,12.0333333 C2,12.4006667 1.70066667,12.7 1.33333333,12.7 L1.33333333,12.7 Z M5.33333333,8.03333333 C4.966,8.03333333 4.66666667,7.734 4.66666667,7.36666667 C4.66666667,6.99933333 4.966,6.7 5.33333333,6.7 C5.70066667,6.7 6,6.99933333 6,7.36666667 C6,7.734 5.70066667,8.03333333 5.33333333,8.03333333 L5.33333333,8.03333333 Z M10.6666667,10.0333333 C10.2993333,10.0333333 10,9.734 10,9.36666667 C10,8.99933333 10.2993333,8.7 10.6666667,8.7 C11.034,8.7 11.3333333,8.99933333 11.3333333,9.36666667 C11.3333333,9.734 11.034,10.0333333 10.6666667,10.0333333 L10.6666667,10.0333333 Z M14.6666667,4.7 C14.2993333,4.7 14,4.40066667 14,4.03333333 C14,3.666 14.2993333,3.36666667 14.6666667,3.36666667 C15.034,3.36666667 15.3333333,3.666 15.3333333,4.03333333 C15.3333333,4.40066667 15.034,4.7 14.6666667,4.7 L14.6666667,4.7 Z" id="Shape"></path>
                            </g>
                        </g>
                    </g>
                </g>
            </g>
        </g>
    </g>
</svg>